HIERARCHY
ROOT hip
{
	OFFSET 0.000000 0.000000 0.000000 
	CHANNELS 6 Xposition Yposition Zposition Xrotation Zrotation Yrotation
	JOINT abdomen
	{
		OFFSET 0.000000 3.402643 0.000000 
		CHANNELS 3 Xrotation Zrotation Yrotation
		JOINT chest
		{
			OFFSET 0.000000 8.438565 -0.680529 
			CHANNELS 3 Xrotation Zrotation Yrotation
			JOINT neck
			{
				OFFSET 0.000000 10.207942 -0.272212 
				CHANNELS 3 Xrotation Zrotation Yrotation
				JOINT head
				{
					OFFSET 0.000000 3.130431 0.000000 
					CHANNELS 3 Xrotation Zrotation Yrotation
					End Site
					{
						OFFSET 0.000000 3.130435 0.000000 
					}
				}
			}
			JOINT lCollar
			{
				OFFSET 3.470700 6.669187 -0.816635 
				CHANNELS 3 Yrotation Zrotation Xrotation
				JOINT lShldr
				{
					OFFSET 3.198488 0.000000 0.000000 
					CHANNELS 3 Zrotation Yrotation Xrotation
					JOINT lForeArm
					{
						OFFSET 10.139888 0.000000 0.000000 
						CHANNELS 3 Yrotation Zrotation Xrotation
						JOINT lHand
						{
							OFFSET 8.370511 0.000000 0.000000 
							CHANNELS 3 Zrotation Yrotation Xrotation
							End Site
							{
								OFFSET 4.083176 0.000000 0.000000 
							}
						}
					}
				}
			}
			JOINT rCollar
			{
				OFFSET -3.470700 6.669187 -0.816635 
				CHANNELS 3 Yrotation Zrotation Xrotation
				JOINT rShldr
				{
					OFFSET -3.198488 0.000000 0.000000 
					CHANNELS 3 Zrotation Yrotation Xrotation
					JOINT rForeArm
					{
						OFFSET -10.139888 0.000000 0.000000 
						CHANNELS 3 Yrotation Zrotation Xrotation
						JOINT rHand
						{
							OFFSET -8.370511 0.000000 0.000000 
							CHANNELS 3 Zrotation Yrotation Xrotation
							End Site
							{
								OFFSET -4.083176 0.000000 0.000000 
							}
						}
					}
				}
			}
		}
	}
	JOINT lThigh
	{
		OFFSET 5.308129 -1.633274 1.361059 
		CHANNELS 3 Xrotation Zrotation Yrotation
		JOINT lShin
		{
			OFFSET -2.041588 -20.007561 0.000000 
			CHANNELS 3 Xrotation Zrotation Yrotation
			JOINT lFoot
			{
				OFFSET 0.000000 -19.190928 -1.224953 
				CHANNELS 3 Xrotation Yrotation Zrotation
				End Site
				{
					OFFSET 0.000000 -2.449906 4.627600 
				}
			}
		}
	}
	JOINT rThigh
	{
		OFFSET -5.308129 -1.633274 1.361059 
		CHANNELS 3 Xrotation Zrotation Yrotation
		JOINT rShin
		{
			OFFSET 2.041588 -20.007561 0.000000 
			CHANNELS 3 Xrotation Zrotation Yrotation
			JOINT rFoot
			{
				OFFSET 0.000000 -19.190928 -1.224953 
				CHANNELS 3 Xrotation Yrotation Zrotation
				End Site
				{
					OFFSET 0.000000 -2.449906 4.627600 
				}
			}
		}
	}
}
MOTION
Frames: 16
Frame Time: 0.033333
14.022303 50.979034 -22.034439 -11.113281 -2.939453 165.781250 25.074217 -17.723814 -2.685007 -21.699219 5.029297 0.458984 51.553619 8.070152 2.616707 -62.060547 15.332029 -44.343121 2.000000 -2.000000 0.000000 -86.416016 30.947262 -52.910152 -117.129303 1.285655 -2.496702 10.894587 13.262116 62.592255 -2.000000 2.000000 0.000000 74.746094 -5.429688 -39.042965 84.317383 -0.143876 -3.124455 -12.378466 -12.253207 66.595627 -25.195791 8.923061 -4.082396 30.348593 -5.196310 -3.492666 -9.125136 0.214940 -7.446805 -20.894724 -5.007242 -22.170546 32.596802 4.687245 2.952231 -12.013876 -6.961851 2.316404 
14.397408 51.572132 -22.813318 -11.113280 -2.773437 166.454605 24.710203 -17.977354 -2.570402 -21.523439 5.039062 0.478516 51.553619 8.070152 2.616707 -60.761719 15.976563 -44.831299 2.000000 -2.000000 0.000000 -86.298828 30.673826 -52.690331 -116.954056 1.284522 -2.516193 10.894587 13.262116 62.592255 -2.000000 2.000000 0.000000 75.898438 -6.386718 -40.029297 83.790863 -0.151935 -3.154253 -12.366649 -12.428861 66.625465 -22.406925 8.972955 -4.642982 25.728176 -5.263960 -2.985892 -7.343754 -0.123219 -7.205279 -18.777632 -4.930509 -22.768221 29.788910 4.852571 2.698915 -9.570020 -6.647512 3.327094 
14.695375 52.133598 -23.431969 -11.113281 -2.597656 167.138672 24.555702 -18.144201 -2.628891 -21.347656 4.853516 0.645358 51.553619 8.070152 2.616707 -60.009769 16.289063 -45.048832 2.000000 -2.000000 0.000000 -86.240234 30.546877 -52.460938 -116.778831 1.273641 -2.535117 10.894587 13.262116 62.592255 -2.000000 2.000000 0.000000 76.923828 -7.353516 -41.505157 83.253761 0.013804 -3.144695 -12.356903 -12.438511 66.626007 -19.875381 9.303808 -4.543603 21.674969 -5.370729 -2.778925 -4.311377 -0.450004 -7.160415 -15.619978 -3.795034 -22.842661 24.682440 5.184673 1.790651 -8.438654 -6.119225 4.122973 
14.816849 52.679249 -23.627657 -11.103515 -2.421875 167.802322 24.555702 -18.144201 -2.628891 -21.181641 4.677734 0.634766 51.553619 8.070152 2.616707 -60.185551 16.650389 -44.990234 2.000000 -2.000000 0.000000 -86.123047 30.039063 -52.250969 -116.793846 1.613610 -2.408491 11.001104 13.194866 62.947536 -2.000000 2.000000 0.000000 77.695313 -8.154297 -42.550213 83.092720 0.023938 -3.320114 -12.261151 -12.398312 66.817047 -18.840458 9.352570 -5.020393 19.586372 -5.692790 -2.423042 -0.335460 -0.849492 -6.879007 -12.545962 -2.858994 -23.716579 19.741354 5.301454 2.075018 -6.961040 -5.733404 4.347578 
14.977799 52.845318 -24.005562 -11.103516 -2.255859 168.457031 24.742094 -18.146425 -2.650599 -20.830078 4.501953 0.821068 51.553619 8.070152 2.616707 -61.279297 16.669920 -44.762821 2.000000 -2.000000 0.000000 -85.625000 29.980471 -52.368172 -116.954056 1.284522 -2.516193 10.894587 13.262116 62.592255 -2.000000 2.000000 0.000000 78.115234 -8.750000 -43.798828 83.253761 0.023554 -3.144132 -12.357025 -12.428746 66.655304 -17.756645 9.547753 -5.158449 18.152800 -5.742136 -2.291924 0.698031 -1.213115 -6.753718 -11.090311 -2.448183 -24.108194 17.619129 5.388163 1.719919 -7.102713 -5.566233 5.135163 
15.147250 52.726696 -24.452936 -11.093749 -2.080078 168.954727 25.068848 -18.209116 -2.541624 -20.664063 4.316407 0.966797 51.553619 8.070152 2.616707 -63.310547 16.210936 -43.678917 2.000000 -2.000000 0.000000 -85.390625 30.058594 -52.192375 -116.969063 1.624493 -2.389569 11.001104 13.194866 62.947536 -2.000000 2.000000 0.000000 77.802734 -9.013671 -45.214844 83.966370 -0.132999 -3.143383 -12.356903 -12.438511 66.655304 -17.043995 9.538001 -5.102001 17.447712 -5.585082 -2.353767 -1.298694 -1.489341 -6.634096 -10.916307 -2.440338 -24.267958 18.335453 5.379478 1.790100 -8.450496 -5.728594 5.790132 
15.204587 52.726696 -24.603317 -11.103515 -1.923828 169.638351 25.613571 -18.179483 -2.590015 -20.312502 4.140625 1.328125 51.553619 8.070152 2.616707 -65.703125 14.726563 -40.917965 2.000000 -2.000000 0.000000 -84.843750 30.185547 -52.348602 -117.129303 1.285655 -2.496702 10.894587 13.262116 62.592255 -2.000000 2.000000 0.000000 77.783203 -8.974610 -46.583553 85.020668 -0.329364 -2.792973 -12.376028 -12.448503 66.634674 -17.039278 9.530366 -4.914487 17.264826 -5.595740 -2.173443 -1.423566 -2.264624 -5.936317 -10.708074 -2.398134 -24.650614 18.329790 5.361233 1.806089 -9.346440 -5.412232 6.904626 
15.186242 52.726696 -24.601133 -11.279296 -1.923828 170.165695 26.312445 -17.976160 -2.601254 -19.960939 3.955079 1.494141 51.553619 8.070152 2.616707 -69.179688 12.080077 -36.169834 2.000000 -2.000000 0.000000 -84.365234 30.078125 -52.543934 -117.129303 1.285655 -2.496702 10.894587 13.262116 62.592255 -2.000000 2.000000 0.000000 77.099609 -9.179688 -48.067963 86.254013 -0.098682 -3.229406 -12.395764 -12.409675 66.828896 -17.368055 9.499670 -4.601874 17.617041 -5.420121 -2.131962 -1.325028 -3.207891 -5.526505 -10.718403 -2.545182 -24.784515 18.676798 5.382750 1.936901 -10.079607 -5.214738 7.392578 
15.127329 52.695061 -24.504318 -11.269530 -1.748047 170.849319 26.990257 -17.881067 -2.434208 -19.619141 3.789063 1.855469 51.553619 8.070152 2.616707 -73.369141 8.398438 -28.818361 2.000000 -2.000000 0.000000 -83.681641 30.068357 -52.592766 -117.318611 1.287478 -2.633706 10.952705 13.223660 62.774498 -2.000000 2.000000 0.000000 76.416016 -9.609375 -49.169926 87.507576 -0.266857 -3.366219 -12.300009 -12.369472 67.010170 -17.867733 9.471110 -4.260884 18.338297 -5.390515 -2.239107 -0.961809 -3.660489 -4.837736 -10.758988 -2.819719 -24.955982 19.027672 5.320732 1.997072 -10.648845 -4.867921 8.221891 
15.023230 52.687157 -24.327703 -11.455078 -1.552734 171.523438 27.688665 -17.672033 -2.432982 -19.267580 3.603516 2.011719 51.553619 8.070152 2.616707 -77.568359 5.019531 -20.488283 2.000000 -2.000000 0.000000 -83.017578 30.029295 -52.475578 -117.491753 1.438810 -2.554503 10.952705 13.223660 62.774498 -2.000000 2.000000 0.000000 75.927734 -9.873046 -50.509487 88.561378 -0.424534 -3.345979 -12.251285 -12.417727 66.827362 -18.694664 9.801653 -4.010146 19.218338 -5.699810 -2.371406 -0.599945 -4.176192 -4.109349 -11.120862 -2.996169 -24.943785 19.567261 5.370094 1.584115 -11.419981 -5.199529 8.925015 
14.891918 52.655525 -24.131889 168.564468 -178.466797 -7.969010 28.380026 -17.484566 -2.429501 -19.082033 3.427734 2.343750 51.553619 8.070152 2.616707 -81.103516 1.982422 -11.220702 2.000000 -2.000000 0.000000 -82.705078 29.755859 -52.382813 -117.509415 1.607943 -2.505944 11.001104 13.194866 62.947536 -2.000000 2.000000 0.000000 75.292969 -10.068360 -51.669926 89.785233 -0.408798 -3.110400 -12.356782 -12.448277 66.665070 -19.417488 9.186847 -3.119591 20.076746 -5.097735 -2.324336 0.092587 -5.111536 -2.957577 -11.453409 -3.279790 -25.608166 19.915010 5.291029 2.117720 -11.794924 -4.538764 9.880860 
14.750645 52.639713 -23.966568 168.388687 -178.632813 -7.304921 29.046253 -17.371252 -2.255768 -18.740236 3.251953 2.509766 51.553619 8.070152 2.616707 -84.892578 -0.820312 -0.712891 2.000000 -2.000000 0.000000 -82.412109 29.257813 -52.749138 -117.664833 1.269557 -2.437312 10.894587 13.262116 62.592255 -2.000000 2.000000 0.000000 74.804688 -10.693360 -52.540871 91.208908 -0.558776 -3.392833 -12.299888 -12.379237 67.010170 -20.073782 9.128974 -2.433486 20.969292 -5.233296 -2.481050 0.795815 -6.087746 -1.720696 -11.635424 -3.812728 -25.549551 20.446285 5.370094 2.010568 -12.384659 -4.570323 10.568569 
14.584715 52.631802 -23.882021 168.388687 -178.808594 -6.631063 29.533680 -17.044168 -2.121057 -18.564453 3.066406 2.666538 51.553619 8.070152 2.616707 -88.349609 -2.988281 9.492188 2.000000 -2.000000 0.000000 -81.875000 28.896481 -52.177731 -117.684395 1.609643 -2.476708 11.001104 13.194866 62.947536 -2.000000 2.000000 0.000000 74.316406 -11.484374 -53.222656 92.423149 -0.717960 -3.177119 -11.991562 -12.404938 67.027763 -20.519356 9.049173 -1.402563 21.489468 -5.454882 -2.602104 1.147842 -6.643085 -0.052741 -11.786079 -4.412924 -26.392981 20.970528 5.330369 2.059608 -13.154142 -3.987003 11.269034 
14.423158 52.600174 -23.924536 168.212906 -178.808594 -6.103718 29.864271 -16.864651 -2.068645 -18.388672 3.066406 2.841797 51.553619 8.070152 2.616707 -90.546875 -4.472655 18.251955 2.000000 -2.000000 0.000000 -81.816406 28.164063 -52.319607 -117.684395 1.609643 -2.476708 11.001104 13.194866 62.947536 -2.000000 2.000000 0.000000 73.935547 -12.597656 -53.976734 93.832329 -0.702808 -2.931912 -12.038851 -12.473845 66.663673 -20.665924 8.971069 -0.711075 21.858547 -5.366545 -2.444429 0.703266 -7.179360 1.317107 -11.728117 -4.794748 -27.578726 20.983902 5.253263 2.203217 -12.733097 -3.503988 10.412313 
14.313107 52.615986 -24.144762 168.212906 -178.984375 -5.429861 29.958368 -16.640100 -1.743358 -18.398438 2.890625 2.988281 51.553619 8.070152 2.616707 -90.283203 -4.951172 24.354628 2.000000 -2.000000 0.000000 -81.708984 27.470705 -52.158203 -117.684395 1.609643 -2.476708 11.001104 13.194866 62.947536 -2.000000 2.000000 0.000000 73.457031 -13.779296 -54.191776 95.070511 -0.648025 -3.202420 -12.138185 -12.221076 67.000000 -20.149170 8.951982 1.362812 20.619526 -5.413109 -2.275954 1.374136 -8.872765 3.513740 -11.619876 -5.476639 -28.240923 20.969769 5.271622 2.195714 -12.321914 -3.781275 9.921852 
14.243261 52.655525 -24.465689 168.212906 -179.150391 -4.765770 29.735546 -16.336802 -1.545176 -18.398438 2.890625 2.988281 51.553619 8.070152 2.616707 -87.978516 -5.205078 28.075287 2.000000 -2.000000 0.000000 -81.914063 27.158205 -52.021488 -117.491753 1.438810 -2.554503 10.952705 13.223660 62.774498 -2.000000 2.000000 0.000000 73.212891 -15.029297 -54.367771 96.313362 -0.993594 -2.978066 -12.185357 -12.299760 66.616386 -19.378344 9.000323 4.377068 19.920286 -5.459427 -2.202376 1.682135 -10.929263 6.275690 -10.994974 -5.808637 -29.652597 20.624371 5.263435 1.998769 -12.275367 -3.279979 9.390980 
